<?xml version="1.0" encoding="UTF-8"?>
<!DOCTYPE svg PUBLIC "-//W3C//DTD SVG 1.1//EN" "http://www.w3.org/Graphics/SVG/1.1/DTD/svg11.dtd">
<!-- Creator: CorelDRAW -->
<svg xmlns="http://www.w3.org/2000/svg" xml:space="preserve" width="350px" height="626px" shape-rendering="geometricPrecision" text-rendering="geometricPrecision" image-rendering="optimizeQuality" fill-rule="evenodd" clip-rule="evenodd"
viewBox="0 0 319.211 571.173"
 xmlns:xlink="http://www.w3.org/1999/xlink">
 <g id="Ebene_x0020_1">
  <metadata id="CorelCorpID_0Corel-Layer"/>
  <g id="_156480056">
   <polygon id="_184955928" fill="#E6E6E6" stroke="#C2C1C1" stroke-width="0.996415" stroke-linecap="round" stroke-linejoin="round" points="67.6421,254.823 67.6421,253.476 66.7447,253.476 66.7685,254.335 "/>
   <polygon id="_149009960" fill="#E6E6E6" stroke="#C2C1C1" stroke-width="0.996415" stroke-linecap="round" stroke-linejoin="round" points="68.9878,256.618 67.6421,255.271 "/>
   <polygon id="_137461008" fill="#E6E6E6" stroke="#C2C1C1" stroke-width="0.996415" stroke-linecap="round" stroke-linejoin="round" points="110.259,269.903 109.362,269.903 "/>
   <path id="_105613120" fill="#E6E6E6" stroke="#C2C1C1" stroke-width="0.996415" stroke-linecap="round" stroke-linejoin="round" d="M66.7447 253.476l0.897357 0 0 1.34634 0 0.448779 1.34573 1.34654 1.34573 2.69308 0 0.897559 0 4.4884c0,1.55935 0.897357,0.684947 0.897357,2.2441l0.134493 1.34654 -0.234155 7.64516 0.54824 4.02452 -3.14025 0c0.288113,1.20359 0.448578,0.846218 0.448578,1.79532l0 0.89776c-0.29979,0.566763 -0.897156,1.48385 -0.897156,2.2441 0,0.849842 3.14025,1.66888 3.14025,3.59064l0 0.448779c0,1.81163 0.0827494,0.194894 -0.448578,0.89776 0.30724,0.547636 0.448578,0.479987 0.448578,1.34654l0 1.34654c0,1.41056 1.79431,1.72546 1.79431,5.38596 4.72457,0.105299 -0.0859707,1.90082 4.03761,2.2443 0.87219,2.41141 1.96646,0.523073 3.58862,3.59044 -0.234356,1.00688 -0.448578,1.03205 -0.448578,2.2443 0,1.15104 -0.107715,1.0848 -0.448578,1.79532 0.161875,0.33744 1.34573,2.66026 1.34573,2.69288 0,1.15104 -0.107916,1.085 -0.448578,1.79552 1.26641,2.64033 1.48848,3.0428 2.36228,6.33788l-1.01635 2.18994c1.20299,-0.288113 0.845614,-0.448981 1.79431,-0.448981 0.681726,0 1.43553,0.298985 1.4454,0.912659l-0.548038 4.02452c1.78666,0.148788 1.46311,0.181404 2.24289,1.34654 -0.116775,1.40392 -0.448578,1.59438 -0.448578,3.14186 0,1.45345 1.67432,2.60328 2.69167,3.14186 -0.401667,1.72445 -0.596158,3.40803 -1.6723,4.61061 -0.785817,0.877828 -2.08947,3.46843 -2.81368,3.46843 -1.21164,0 -1.23701,-0.214222 -2.24309,-0.448981 -0.307441,0.547636 -0.448578,0.480188 -0.448578,1.34674l0 0.897559 0 0.89776c-1.23762,2.34014 -0.330192,1.89156 -2.69167,3.14186l0 0.897559 0 0.89776c0,1.61271 -1.98095,2.0792 -3.14025,2.69288l0 0.897559 0 0.89776c0,1.96062 -2.15611,1.03527 -2.2751,4.85342l-1.31372 0.532737 0 1.79512c-2.52255,1.33567 -1.33506,1.66002 -2.86542,2.51912 -2.28014,1.2799 -1.8068,0.26214 -2.51792,3.31581l-2.24289 0c-0.734275,0 -1.34573,0.268784 -1.34573,0.897559 0,0.26818 0.61911,0.931182 0.897156,1.34674 -0.911652,1.90042 -0.721591,1.53882 -1.79451,3.14166l-0.897156 0 -1.34573 0c-0.684343,2.56463 -0.949302,0.380728 -2.68704,2.24873 -0.886284,0.952725 -1.34332,2.19839 -2.6963,2.68845l0 3.14186 1.22976 0.0155029 0.564749 3.57513c-2.28638,3.41608 -3.39293,12.7386 -6.72927,13.0162 -0.666223,2.862 -1.92055,4.87537 -3.14005,7.18128l-1.79451 0 -0.143553 -1.42687 -0.753603 1.42687c0.756019,0.52569 0.897156,0.0644277 0.897156,1.34654 0,1.36708 0.203954,1.6417 0.532334,2.72529l-0.532334 1.31412c0.399452,0.224692 0.897357,0.292341 0.897357,0.89776 0,0.723201 -1.28372,2.17605 -1.79451,3.14186l0 0.897559c0,1.54747 0.331803,1.73814 0.458041,3.16642l-1.3552 0.424418c-0.0360393,1.61995 -1.80015,7.87428 -2.69167,8.52761 -0.0448981,2.01155 -0.586091,4.0515 -1.79431,4.93718l0 1.79552c-0.526294,0.139526 -1.22292,0.448779 -1.34594,0.448779 -1.02742,0 -0.521663,-0.152211 -1.71076,-0.416767l-0.532133 1.31453 -0.298582 0.905612 0.298582 8.07098c0.0444954,1.65539 0.107312,0.22449 -0.448779,1.34654 0.225094,0.324152 0.923531,1.14863 1.01091,1.36144l-0.562132 4.4733c-0.270798,2.04196 -0.897357,0.5122 -0.897357,2.2443l0 0.448779c0,1.15104 0.107916,1.0848 0.328581,1.77237l-0.328581 2.26725c-0.756019,0.525489 -0.897156,0.0642264 -0.897156,1.34634 0,4.23834 2.69167,8.09776 2.69167,11.6697l0.0652331 0.895143 -0.0436901 6.73068 0.427035 2.69731 -0.960778 0.00805347 0.414351 4.95489 0.521865 1.76029 -0.424015 1.3558c0.547233,0.307642 0.479785,0.448981 1.34573,0.448981l0.448578 0c1.71539,0 0.163485,-0.137916 1.34372,0.447773l1.32359 -2.68261 -0.424216 -1.356c0.465893,-0.695819 1.34594,-1.63405 1.34594,-2.69308l0 -0.897357c-0.167713,-0.317307 -1.34594,-2.20403 -1.34594,-2.2443 0,-1.20037 0.647499,-1.32761 1.34594,-1.79532 -0.307642,-0.547636 -0.448779,-0.479987 -0.448779,-1.34654 0,-1.71599 -0.137513,-0.163284 0.448779,-1.34654 -0.551461,-0.46086 -0.448779,0.731657 -0.448779,-0.897559l0 -0.448981c0,-1.07896 0.726825,-1.31936 1.34573,-2.2441 -0.30724,-0.547434 -0.448578,-0.480188 -0.448578,-1.34654 0,-0.9189 0.924135,-0.825078 1.79451,-0.897559l0 -1.79532c1.63727,-1.09688 3.14629,-2.1845 5.94547,-2.2292l-0.418579 4.55363 0.753402 -1.42687 0.897357 0c1.00568,0 0.984738,0.355158 1.79431,0.89776l0 1.79532c0.40972,0.274422 1.34594,0.730449 1.34594,1.34634 0,1.15104 -0.107916,1.085 -0.448578,1.79552 0.314085,0.634009 0.448578,0.745348 0.448578,1.79532l0 0.448779c0,1.49271 0.805347,1.31433 2.24289,1.34654 0.22449,0.399452 0.292139,0.897559 0.897357,0.897559 1.54667,0 1.73693,-0.331803 3.19421,-0.513811l1.29178 0.962792 0 1.79532c0.75622,0.52569 0.897156,0.0644277 0.897156,1.34634 0,1.63747 0.402673,1.0695 0.458041,3.16662l-1.36063 0.427639 0.902592 1.79169 1.79451 0c0.145365,1.7478 0.800313,2.3341 0.909438,3.60956 0.133084,1.55512 -0.46086,1.87948 -0.46086,4.02069 0,0.765281 1.33446,4.03962 2.24289,4.03962 0.729443,0 1.04594,-1.22815 1.34594,-1.79552l0 -0.897559 0 -1.34654 0 -0.897559c-0.466296,-0.881855 -0.897156,-1.32359 -0.897156,-2.69308l0 -1.79532 1.34573 0c1.4615,0 1.72988,1.27386 2.24309,2.2441 2.2143,0.0495288 2.19356,0.0287911 2.24289,2.2443 1.42063,0.514415 1.06567,0.865949 1.81062,2.24812l-0.464886 2.24027c1.33808,0.111339 2.24329,0.322541 2.24329,1.79532 0,1.36687 -0.203954,1.6415 -0.498912,2.73677l2.29322 3.09797 1.34573 0c1.71519,0 0.163284,-0.137714 1.34594,0.448779 0.224289,-0.399452 0.291938,-0.897559 0.897156,-0.897559 1.00568,0 0.984738,0.355158 1.79431,0.897559l0 0.89776c0,2.28839 1.24809,2.14142 1.79451,4.4882 1.84324,-0.153419 1.00205,-0.448779 2.69147,-0.448779 1.45365,0 -0.19429,0.992187 1.85814,1.80337l-0.5122 4.92933 0 4.93718 1.79431 0c1.41318,1.92961 1.94652,-0.0996616 2.69167,2.69288 1.05521,0.0877828 2.24309,0.405492 2.24309,1.34654 0,1.45889 -0.388781,0.33885 -0.897156,2.2441 1.20299,-0.288113 0.845614,-0.448779 1.79431,-0.448779 0.994603,0 0.143754,1.13433 2.69167,1.34654l0 2.69288 1.12024 0.147781 2.02001 2.5453c1.90787,-0.444753 3.43903,-0.698638 2.52758,1.6727l0.795682 2.03954 1.16272 -1.91693c-0.234356,-1.00668 -0.448578,-1.03205 -0.448578,-2.2441 0,-0.817829 0.683337,-0.720785 1.34573,-0.89776 -0.234356,-1.00668 -0.448578,-1.03185 -0.448578,-2.2441l0.0322139 -3.0581 1.31372 -0.532737c0.809575,0.542602 0.788636,0.89776 1.79431,0.89776l0.448578 0 0.897156 0c0.61911,0.924739 1.34594,1.16514 1.34594,2.2441l0 0.89776c0,2.02323 2.57872,2.89039 4.0374,3.59064 0.00865748,-0.00724812 0.836755,-0.448779 0.897156,-0.448779 0.558709,0 6.64169,3.14186 8.97216,3.14186 0.994603,0 0.143754,-1.13453 2.69167,-1.34654l0 0.897559 2.01276 -0.0716758 2.02444 5.90661c-0.274221,1.17782 -1.06104,2.69308 0.897357,2.69308l1.34594 0c1.58694,0 1.3562,-1.34654 2.24289,-1.34654 1.55855,0 0.684545,0.897559 2.24309,0.897559l3.05649 0.0322139 0.532334 1.31433 0 0.897559 -0.0132882 0.873197 -1.78123 0.922323c1.25674,1.71599 1.18205,0.0636224 1.79451,2.69288 -0.234557,1.00668 -0.448578,1.03205 -0.448578,2.2441 0,1.21245 0.214021,1.23762 0.462873,2.25376l-1.36023 2.23484 -0.897156 0 -1.26923 0.0128855 -0.71696 3.45675 -0.481195 1.24305 1.12165 1.57083c3.29971,0.274825 1.87565,1.24486 4.0372,2.69308l1.79451 0.897559 0.753603 -0.124225 2.02947 -1.69405 -0.539985 -2.22115c0.513006,-0.970443 0.781589,-2.2443 2.24289,-2.2443l0.897357 0c1.37493,0 2.19417,-1.30365 2.69167,-2.2441l0.896955 0 1.79451 0c1.34714,0 2.24168,-1.79532 3.58883,-1.79532l1.34594 0c1.36305,0 1.52291,0.778569 1.79431,1.79532l1.34594 0 0 2.2441c0,1.45909 0.38858,0.33885 0.897156,2.2443 0.695417,-0.466094 1.63324,-1.34654 2.69167,-1.34654 0.817225,0 0.720181,0.683739 0.897156,1.34654l1.34573 0c0.431867,-1.61814 0.0408713,-1.20057 1.79451,-1.34654l0 -1.79532 1.72928 -0.0539582 0.962188 -1.29258c-0.0126842,-0.0153016 -0.45945,-0.833534 -0.525086,-0.910646l0.525086 -3.57755c0.853265,-0.344688 1.77881,-1.78706 2.80784,-2.57691 0.919504,-0.705685 2.5755,-1.838 2.5755,-3.25803l0 -2.69308 0 -0.897559c-3.23548,-1.71277 -9.97019,-7.35241 -12.2288,-10.2068 -0.944672,-1.19413 -3.80103,-5.49548 -4.42759,-6.79088 -1.39043,-2.87448 -2.79576,-4.35169 -4.428,-6.79068l-0.897156 0c-2.01679,0 -3.36675,-1.34634 -5.38334,-1.34634 -1.00568,0 -0.984738,0.355158 -1.79431,0.89776 -1.00628,-0.234557 -1.03145,-0.448981 -2.24309,-0.448981 -0.759844,0 -1.67653,0.597768 -2.24309,0.897559l-0.900579 -0.0370459 -6.72565 0.486027c-1.76955,0.160264 -5.73044,-4.03942 -6.72887,-4.03942l-0.897357 0c-3.16139,0 -6.59961,-8.75694 -9.13364,-10.6104 -4.57215,-3.3444 -4.05472,-8.42634 -6.5674,-13.1779l0 -0.897559 0 -0.448981c0,-2.71563 -2.54469,-9.73825 -3.02851,-13.4829l-0.56032 -3.57272c-0.371063,-2.32141 -1.10554,-6.16553 -1.73431,-8.13924 -0.475758,-1.49311 -2.22658,-6.65055 -2.30309,-7.56986 -0.999838,0.266972 -1.34594,0.104896 -1.34594,1.34634l0 1.79532c-3.06475,-0.0680518 -4.86671,-2.78569 -4.93456,-5.83474 -2.6208,-1.75586 -3.54856,-1.34795 -4.02371,-5.39965 -0.372674,-3.17629 -0.910847,-5.55971 -0.910847,-8.9631l0 -5.83474 0 -0.89776c-0.510992,-0.965812 -1.79451,-2.41846 -1.79451,-3.14186l0 -1.34634 -0.0151002 -0.889908 -1.35802 -3.07139 -2.6965 -1.05963 -1.34573 0.616291 -1.31372 -0.532535c-0.439518,0.600185 -2.38886,1.79512 -3.14025,1.79512l-2.24289 0 -0.879036 0.00966416 -1.36406 2.68341 -0.915679 -0.114359 -3.22582 0.744342 -2.58758 -1.52754c-1.00608,0.234356 -1.03145,0.448779 -2.24309,0.448779 -1.75948,0 -2.24289,-2.22034 -2.24289,-4.03942l0 -0.89776c2.33913,-1.23822 1.89055,-0.330192 3.14025,-2.69288 -1.76834,-2.64194 -3.14025,-2.85777 -3.14025,-7.63026 -1.73955,-0.629982 -2.69167,-3.98163 -2.69167,-6.28372l0 -1.79532c0,-1.26379 0.194089,-0.831118 0.897156,-1.34654 -0.307441,-0.547434 -0.448578,-0.479987 -0.448578,-1.34654l0 -0.448779c0,-1.81163 -0.0827494,-0.194894 0.448578,-0.897559 -0.307441,-0.547636 -0.448578,-0.480188 -0.448578,-1.34654l0 -0.89776c0,-1.48929 0.897156,-0.937021 0.897156,-1.79532 0,-0.148586 -1.34573,-1.64915 -1.34573,-3.59064l0 -0.89776c0.728235,-0.385358 4.23773,-3.80204 4.48598,-4.4882l-2.24289 0c-1.05017,0 -1.79451,-0.744744 -1.79451,-1.79532l0 -2.69308c1.20299,-0.288113 0.845614,-0.448779 1.79451,-0.448779 1.00568,0 0.984738,0.355158 1.78485,0.872996l1.3554 -0.424216c-0.228517,-2.74482 -1.51727,-1.3709 -2.24309,-4.4882 1.98659,-1.05178 1.19171,-0.256704 2.24309,-2.2443l0 -0.897559 0 -0.448981 0 -0.89776c0.946081,-1.78908 0.741926,-2.94193 3.14025,-3.14166 0.369453,-1.38499 0.844003,-2.3192 2.16014,-2.70435l0.531327 -4.47692 1.79451 0c0.734073,0 1.34573,-0.268784 1.34573,-0.89776 0,-0.858298 -0.897156,-0.30583 -0.897156,-1.79532l0 -0.448779c0,-1.15104 0.107715,-1.085 0.448578,-1.79532 -0.314287,-0.63421 -0.448578,-0.745348 -0.448578,-1.79552 0,-1.36687 -0.203954,-1.6415 -0.448578,-2.69288 0.478577,-2.05605 0.262543,-2.11565 1.81988,-3.23991l1.76894 0.54683c-0.508576,-1.90525 -0.897357,-0.785012 -0.897357,-2.2441l0 -3.59064c1.87424,-0.500724 3.53446,-5.19167 3.58903,-7.63026 2.38201,-1.74619 2.6661,-6.88028 6.18224,-7.20685l0.546629 -1.76975c-0.307441,-0.547434 -0.448578,-0.480188 -0.448578,-1.34654 0,-0.656357 0.553273,-0.658371 0.897156,-0.897559 -0.30724,-0.547636 -0.448578,-0.480188 -0.448578,-1.34654l0 -0.89776c1.41197,-2.66952 1.29037,-3.16018 3.36715,-5.60803 0.671458,-0.791454 4.25908,-4.52444 4.25908,-5.16388 0,-0.743335 -1.01735,-2.52094 -1.34573,-3.14186l0 -0.89776 0 -0.448779c0,-1.00628 0.355158,-0.985342 0.897357,-1.79532 -0.374285,-1.60667 -0.897357,-2.109 -0.897357,-4.03962l0 -2.2441c0,-2.04598 -1.08621,-3.38467 -1.07453,-4.5188l1.07453 -6.25311 0 -0.89776c1.90303,-3.59829 2.10175,-5.86312 4.49544,-9.45014l-1.45486 -0.438713 0.54824 -2.67838c-0.919303,-1.37392 -4.93476,-3.886 -4.93476,-5.38616l0 -0.897559 0 -0.89776c5.55729,-2.94193 5.64991,-6.28372 14.8041,-6.28372l0 0.89776 0.897156 0 0.124023 -1.42325 0.773133 0.974469 0.0126842 -0.775146 5.81923 -0.571393 0.897156 0c0.435894,-0.230732 2.67013,-1.79532 2.69167,-1.79532 0.486832,0 0.928162,0.90078 1.83075,1.3103 0.972053,0.440927 1.36466,0.321937 2.64778,0.543408l8.08226 0.839171 0.448779 0c1.4919,0 1.31372,0.805951 1.34573,2.2443l-0.897156 0 0 0.897559 0.897156 0 0 1.79532 -1.38419 0.0237577 0.389989 0.718772 -1.69727 1.05299c0.376701,0.712732 1.34573,2.02645 1.34573,2.69288l0 0.897559 0.106507 0.966819 -2.79818 4.41934c1.33808,0.111339 2.24289,0.322541 2.24289,1.79532l0 0.89776c0,1.36365 -0.777965,1.52372 -1.79431,1.79512l0 1.34674 -1.10735 0.156036 1.9131 2.11101 0.612265 2.26846 -1.41801 2.19699 -1.79431 0 0 2.2441c0,1.07896 0.726825,1.31936 1.34573,2.2441l1.69827 0.0962389 1.44197 1.2503 0 -1.79532c4.11633,-2.17927 4.4733,-1.34654 8.97216,-1.34654l0.896955 0c3.04361,0 5.60038,1.62056 7.62623,2.69308 0.467705,-0.698638 0.594748,-1.34654 1.79451,-1.34654l0.458444 0.104494 6.5831 -0.655552 1.48204 -2.14202 0.897156 0 0.897156 0c3.57574,0 6.01352,2.17725 6.42667,5.19207l2.09672 1.54063c0.547434,-0.307844 0.479987,-0.448981 1.34594,-0.448981 1.74458,0 1.77257,1.88753 3.18494,2.64838 2.37215,1.27768 1.56781,1.33305 3.10824,2.72489 0.904606,0.817225 5.37045,5.20576 5.37045,6.2964l0 0.89776c0,0.734677 0.268583,1.34634 0.897156,1.34634 0.267979,0 0.930578,-0.619513 1.34573,-0.897559 0.71253,0.377305 2.02565,1.34654 2.69167,1.34654 1.58371,0 4.27397,1.94974 5.38334,2.69288l0 -2.69288c0,-0.866956 0.79991,-1.79532 1.34573,-1.79532 1.07856,0 1.31876,0.727228 2.24309,1.34634l0 0.89776 0.179995 1.1291 2.51167 2.01276 0 1.79532c2.37316,1.58996 0.874204,2.40778 2.69147,3.14186 -0.30724,-0.547434 -0.448578,-0.480188 -0.448578,-1.34654l0 -1.34654c0,-1.36667 -2.82717,-2.99106 -2.72851,-4.49182l0.485624 -6.72907 0 -0.897559c0,-1.37694 1.10655,-1.94068 2.24289,-2.2443 -0.732261,-2.74402 -4.18136,-4.39558 -4.93456,-7.63005 -2.39329,-0.199323 -2.58315,-1.79532 -4.0374,-1.79532l-1.34594 0c-0.116574,-1.40392 -0.448578,-1.59438 -0.448578,-3.14186 0,-1.07916 0.727027,-1.31956 1.34594,-2.2441 -0.377104,-0.712933 -1.34594,-2.02665 -1.34594,-2.69308l0 -4.4884 0 -0.897559c-0.660384,-1.24889 -2.61113,-3.97016 -2.69167,-4.93718 -1.66264,-0.602198 -1.92297,-3.48413 -2.69147,-4.93718l0 -0.89776 0 -0.448779c0,-1.66022 0.0692598,-1.16433 -0.448779,-2.2443 0.245027,-1.05118 0.448779,-1.3258 0.448779,-2.69288l0.103286 -0.459853 -0.495087 -5.6787 3.08327 -1.04272 0 1.34654 1.79451 0c1.55915,0 0.630385,-0.795884 2.69167,-1.34654l0 0.897559c0.673068,-0.161069 1.34573,-0.0984536 1.34573,-0.897559 0,-1.22896 -0.897156,-1.46412 -0.897156,-2.69308 0,-0.810179 5.6189,-3.7807 6.72907,-4.03942l0 -1.79532c0.764878,-0.512603 1.79431,-0.976684 1.79431,-2.2441l0 -0.89776c0,-1.26963 3.38185,-3.91016 4.93456,-4.03942l0 -1.34674c0,-1.54667 0.634613,-2.32282 1.22594,-3.11891l-0.328581 -2.26705c1.60687,-0.42925 3.6005,-1.97028 4.47793,-3.14991 0.915075,-1.23057 3.36393,-1.84887 4.94281,-2.68482l0.906619 0.0569783 6.71961 -0.954738c2.09229,-0.351534 0.519449,-0.897559 2.24289,-0.897559l1.34594 0c1.13534,0 2.45953,-1.79552 4.0374,-1.79552l0.910243 -0.0243617 1.78143 0.922122c0.274221,-0.409921 0.730248,-1.34654 1.34573,-1.34654l0.975879 -0.0205363 0.369855 1.81606c2.47161,0.0549649 2.29423,0.897559 3.58903,0.897559 1.15024,0 1.0842,-0.107916 1.79431,-0.448779 0.924337,0.619312 1.16453,1.34654 2.24289,1.34654 1.87626,0 1.16977,-0.706289 2.70456,-0.52569l3.57594 0.52569c0.789642,0.133285 1.15144,-0.467101 1.81203,-0.952725l1.86659 0.59354 0.839574 -1.07111 1.31372 0.532535c2.10518,-1.46352 0.601393,0.49851 1.40835,-1.54667l3.07763 1.09789 0.897357 0 0.897156 0c1.6262,0 2.50402,0.376701 3.47688,0.542602l2.35483 -0.542602 0 0.897559c2.50342,-0.208383 2.55375,-2.2441 4.03761,-2.2441 1.71519,0 0.163284,-0.137714 1.34573,0.448779 0.547233,-0.307441 0.479785,-0.448779 1.34573,-0.448779 1.71519,0 0.163284,-0.137714 1.34573,0.448779 0.50012,-0.335024 1.50902,-1.34654 1.79451,-1.34654 1.46875,0 1.50318,0.541394 1.79451,1.34654 0.526093,-0.139526 1.22272,-0.448779 1.34573,-0.448779 0.759844,0 1.67653,0.597768 2.24309,0.89776l0.897156 0 0.897156 0c1.03366,0 1.34594,0.312072 1.34594,1.34634 0,1.21225 -0.214222,1.23762 -0.448578,2.2441 2.32906,0.843601 0.575017,3.14206 3.14025,3.14206l0.448377 0c1.45828,0 0.338648,-0.388982 2.24309,-0.89776 0.0358379,-1.6121 0.167915,-4.03942 1.79451,-4.03942 2.55677,0 4.59068,-1.79532 5.38314,-1.79532l0.448578 0 0.897357 0c1.44821,-2.16397 1.48305,-0.373077 3.41245,-3.31823 0.685551,-1.04655 2.6504,-2.86643 2.5312,-4.32995l-0.560521 -3.57292c-0.159257,-0.995811 0.181404,-1.23802 0.448578,-1.79512 -0.314287,-0.63421 -0.448578,-0.745348 -0.448578,-1.79532l0 -1.79552c1.84646,-0.493073 1.04192,-0.898364 2.24309,-2.69288 -0.307642,-0.547434 -0.448578,-0.480188 -0.448578,-1.34654 0,-0.299589 1.41278,-1.67432 1.79431,-2.2441 -1.28151,-0.342474 -2.55959,-1.55351 -2.69167,-3.14186 -1.19473,-0.31932 -2.69167,-1.26097 -2.69167,-2.69308l0 -0.448779c0,-1.24607 2.25578,-4.30256 4.48618,-4.4884l0 -1.79532 -2.24309 0c-1.21164,0 -1.23681,-0.214222 -2.24309,-0.448779 0.0398647,-1.79109 0.206974,-1.66183 0.897357,-2.69308l0.897156 0c1.51184,0 3.14025,-0.793065 3.14025,-2.2441l0 -3.14186c0,-1.55915 0.897156,-0.684947 0.897156,-2.2441 0,-1.21225 0.214222,-1.23762 0.448578,-2.2443 -0.983328,-1.46915 -1.17379,-0.624144 -1.44962,-2.51167l-2.60268 -1.59579 -2.67677 0.516831c-1.19815,-0.802729 -1.73572,-2.1843 -3.14005,-2.69288 -0.0539582,-2.42389 -1.34594,-3.5095 -1.34594,-4.03962 0,-1.35278 1.50217,-2.88757 2.24309,-3.59064 -1.83075,-0.152412 -3.27514,-0.806353 -5.09623,-1.18487 -1.41238,-0.293347 -5.19428,-1.50821 -5.22167,-1.50821 -1.63667,0 -1.0689,-0.402673 -3.05065,-0.538576l-0.986952 -0.807763c-0.0461061,-2.07256 -0.448377,-1.50459 -0.448377,-3.14186l0.153217 -1.02601 -3.29346 -4.36015c-2.77361,-0.230933 -1.67673,-2.35946 -3.45131,-4.17713 -1.77478,-1.81827 -2.75127,-1.20983 -4.17492,-3.9017l-0.0686558 -0.908431 1.00487 -5.83494 -0.936215 -3.13099c0.834742,-3.5852 -0.448578,-4.68349 -0.448578,-8.07904 0,-1.40452 3.14025,-5.18623 3.14025,-8.52802l0 -4.4882 0 -0.897559c-2.58275,-4.88322 -5.38072,-6.73833 -10.4677,-9.27598 -2.26101,-1.12769 -4.23834,-2.58536 -5.18965,-4.68188 -2.18128,-4.80772 -1.17923,-2.64436 -5.42723,-4.89329l0 -0.897559c0,-2.8469 -3.94257,-6.37432 -5.50475,-8.40601 -1.99142,-2.58939 -2.79053,-6.69364 -5.71031,-8.64962 -0.965409,0.510992 -2.41725,1.79532 -3.14005,1.79532 -1.36325,0 -1.52331,-0.77877 -1.79451,-1.79532l-3.58883 0c-2.17685,0 -5.05637,-3.59084 -9.86932,-3.59084l-0.448578 0 -0.910444 0.0245631 -1.75022 -0.805749 -3.61983 0.781186c-0.992187,1.87646 -1.28916,0.972255 -1.79451,3.14186 0.67327,0.161271 1.34594,0.098655 1.34594,0.897559l0.0261738 0.975476 -4.47833 1.28775 -0.810984 1.30466 0.215833 2.10256 -2.96609 1.96786 -0.485624 1.778 0.461866 1.37795 -1.38359 2.67093c-2.57932,-0.0575823 -2.73234,-1.34654 -3.58862,-1.34654 -2.99045,0 -7.20181,4.21075 -10.3181,4.93718 -0.105299,1.26701 0.0106708,1.79532 -1.34573,1.79532l-1.79431 0c-0.734275,0 -1.34594,-0.268784 -1.34594,-0.89776 0,-0.260127 1.14722,-2.72751 1.20218,-3.06132l-0.753603 -1.42687 -0.897156 0 -4.0374 0c-1.2205,0 -2.67939,-1.79431 -3.56527,-2.26786 -1.8835,-1.00749 -2.54047,0.306233 -4.07163,-1.76109 -1.39265,-1.88089 -2.05323,-1.70975 -3.03958,-2.79375 -1.87465,-2.06008 1.1291,-1.48204 -3.67882,-2.60288 -1.74136,1.16675 -5.6479,6.7325 -7.62623,6.7325 -1.92961,0 -2.43174,-0.523274 -4.0374,-0.89776 -0.471732,0.89172 -1.79451,3.72694 -1.79451,4.93718 0,1.47862 -1.36808,1.34674 -2.69147,1.34674l-0.448779 0 -0.897156 0c-0.453007,0.676692 -2.03853,2.2141 -2.69167,2.69288l0.0450994 1.96766 -3.63372 0.725416 0 0.897559 -1.34594 0 -0.897357 0c-1.95921,3.7048 -2.29041,2.05082 -4.38773,4.13787 -1.94592,1.93625 -1.02641,3.6448 -4.58423,3.94116 -0.105299,1.26721 0.0104695,1.79532 -1.34573,1.79532l-1.79451 0c-0.720584,-1.78626 -3.84674,-2.41423 -4.93456,-4.03942 0.234356,-1.00668 0.448578,-1.03205 0.448578,-2.2443l0 -0.897559c0.29979,-0.566763 0.897156,-1.48405 0.897156,-2.2443 0,-0.267979 -0.61911,-0.931182 -0.744946,-1.32399l0.296368 -2.71543 1.44217 -0.0181203 -0.545018 -3.12374c1.7023,-0.817225 2.51792,-0.295361 3.21696,-2.16759 0.673672,-1.80458 0.10852,-2.5608 2.73093,-2.78509l-0.564548 -3.57513c0.517838,-1.07977 0.448578,-0.583876 0.448578,-2.2443 0,-1.71599 -0.137714,-0.163284 0.448578,-1.34634l-0.897156 0 0 -3.14186c0,-1.71599 -0.137714,-0.163485 0.448578,-1.34654 -1.29097,-0.34489 -4.48598,-2.02746 -4.48598,-3.59064 0,-2.01961 3.14226,-4.0368 4.48598,-4.93718l0 -1.79532c3.1028,-1.6425 1.94693,-0.486429 3.55661,-3.50708l-1.31352 -0.532334 0.0167109 -0.895545 0.431867 -4.04163 0 -1.79552c0,-1.4164 1.2354,-1.40211 1.95397,-2.9818 0.50757,-1.11561 -0.0155029,-0.825279 0.644277,-1.59982 0.494885,-0.581058 1.43915,-0.383144 1.43915,-1.25312 0,-2.71563 -4.0374,-0.993999 -4.0374,-6.28372 0,-1.71599 -0.137714,-0.163485 0.305025,-1.266l-0.753603 -1.42707 0 -0.897559 0 -0.89776c0,-1.11601 -1.12165,-1.68781 -1.79451,-2.69288 1.4313,-2.70617 -0.0485221,-3.51957 3.14025,-3.59064 0.153419,-1.84445 0.448578,-1.00266 0.448578,-2.69308 0,-0.866956 -0.799709,-1.79532 -1.34573,-1.79532 -1.55855,0 -0.684545,0.897559 -2.24309,0.897559l-2.24289 0c-0.723,0 -2.17504,-1.28413 -3.14025,-1.79512l-0.897357 0 -3.14025 0c-1.71519,0 -0.163284,0.137714 -1.34573,-0.448981 -0.7832,1.17037 -2.90811,4.93718 -4.48598,4.93718 -2.89723,0 -3.11186,-1.79532 -6.72907,-1.79532l0 1.79532c-2.73697,0 -4.28263,-0.599782 -5.30462,-2.22356l0.370057 -1.81586c-1.89639,-0.506563 -2.19095,-1.69385 -2.24309,-4.03962 -0.756019,-0.525489 -0.897156,-0.0642264 -0.897156,-1.34634l0.0320125 -1.26298 1.31372 -0.532334 0.0895948 -1.70572 0.807561 -0.987355 0.897357 0 1.26319 -0.0114762 0.531126 -4.47692 0 -0.448779c0,-2.1235 1.28574,-3.14166 1.35016,-5.81319l-2.6961 0.427236c-0.461464,-1.72968 -2.53402,-3.69251 -4.0372,-4.4884 -0.0485221,-2.17524 -1.64432,-5.38596 -3.58903,-5.38596l-1.34573 0c-0.393814,1.69103 -0.625553,3.41849 -2.69147,3.59064l0 1.34654c0,1.03407 -0.312273,1.34634 -1.34594,1.34634l-0.910444 0.0245631 -1.78123 -0.922122 0 -0.89776 0 -2.2441c0,-1.71599 -0.137714,-0.163284 0.448578,-1.34634 -1.9729,-0.947289 -3.87251,-0.843601 -4.48357,-3.12515l-3.83989 0.586695 -1.54566 1.64069c-0.0320125,1.43835 0.145969,2.2441 -1.34594,2.2441l-0.897156 0c-1.15024,0 -1.0842,-0.107916 -1.79451,-0.448779 -0.499919,0.334823 -1.50882,1.34654 -1.79431,1.34654 -1.7321,0 -0.191874,-0.615486 -2.25437,-0.815011l-4.47471 -0.531529c0,4.03237 1.79451,3.98163 1.79451,5.38596l0 0.448779c0,1.26943 -3.38246,3.90412 -4.48618,4.4884l-0.889505 0.0843601 -5.39079 0.364419c-0.639445,-1.76713 -0.0674478,-0.0493275 -1.36406,-1.69888l-3.21816 -0.641459 -1.2497 1.44258c-3.60312,0.0803333 -1.88069,1.86196 -3.06153,4.46806l0.369855 1.81586 -1.01313 0.0155029 0.564548 3.57493c-0.278046,0.52569 -2.29967,4.03962 -2.69167,4.03962 -1.24104,0 -1.07876,-0.346299 -1.33627,-1.32198l-1.3552 0.424418c-0.316904,-0.167915 -2.20282,-1.34654 -2.24309,-1.34654 -1.78223,0 -1.35802,1.79532 -3.14025,1.79532l-1.79451 0 -0.897156 0c-1.11037,0.587903 -1.44821,0.688571 -2.86724,1.17077 -1.4907,0.506563 -2.17484,1.52231 -2.5159,1.52231 -1.24104,0 -1.07896,-0.346299 -1.35902,-1.3711l-1.78123 0.922122c-1.05078,-0.244825 -1.3254,-0.448779 -2.69167,-0.448779l-2.24289 0 -0.910444 -0.0245631 -1.78123 0.922323 -0.897357 0c-1.3562,0 -1.24023,-0.528307 -1.34573,-1.79552 -2.58899,-0.691591 -1.13957,-2.15954 -4.81215,-2.52879l-1.80257 -0.594346 -0.562937 3.12313c0.280865,1.20641 1.16997,3.14186 -0.897156,3.14186l-1.34594 0c-0.0320125,1.43835 0.14617,2.2441 -1.34573,2.2441l-1.79451 0c-1.3562,0 -1.24023,0.528307 -1.34573,1.79552l0.897156 0c-0.0897961,4.03418 -3.14025,3.05891 -3.14025,5.38596l0 0.448779c0,1.58794 1.34594,1.35721 1.34594,2.2441 0,1.24164 -0.346098,1.07957 -1.34594,1.34674 0.57985,2.17262 1.79451,1.50036 1.79451,3.14166l0 3.14186 0 0.89776c-1.63103,0.863533 -3.25058,2.48268 -4.0374,2.69288l0 1.34654 0.0326165 0.966819 -2.27571 0.8285c0.603607,2.26121 1.51989,1.37513 2.69167,3.59064l-0.0726825 0.908028 0.969839 8.06857 0 0.89776c0,1.03427 -0.312072,1.34654 -1.34573,1.34654l-2.24309 0 -0.897156 0c-2.09128,1.10715 -3.48333,1.86901 -5.38878,2.99669l-3.13461 0.145164c-1.27225,-2.40557 -0.701256,-2.74825 -3.14025,-4.03942 0.154224,1.85471 0.56636,1.87022 1.79431,2.69288 0.0426834,1.91672 0.358178,3.07038 1.79451,3.59064l0 3.14186c0,1.24044 1.4605,2.1688 2.24309,2.69308 0.654948,-0.978697 1.2958,-2.69308 2.69147,-2.69308 0.930981,0 2.24309,1.31292 2.24309,1.79532 0,1.36708 -0.203954,1.6417 -0.550656,2.79496l2.34497 2.14222 0 0.89776c0,1.63747 0.402472,1.0693 0.448578,3.14166 1.11923,0.749979 1.79451,1.74297 1.79451,3.59084l0 0.897559c-1.98659,1.05178 -1.19191,0.256503 -2.22135,2.23987l0.426834 2.69731c2.30228,0.615083 2.41805,2.48409 3.67963,4.3976 2.00451,3.03998 2.1541,2.03652 4.25424,3.82258 1.35701,1.15386 -0.282677,0.972859 1.64311,2.3957 0.91588,0.676692 1.55331,0.853667 2.36953,1.66868 1.63888,1.63646 2.15168,3.23629 4.20331,4.3223l0 0.89776 0 1.34654 0.897156 0 0.224289 1.12205 1.12145 1.57083 1.34594 0c0.767294,2.87529 3.04844,1.71015 3.23991,5.73507l1.69465 1.89518 0.897357 0c1.68942,0 0.84803,0.295361 2.69167,0.448779 0.407908,1.52855 1.14259,2.72811 2.69147,3.14186l0 1.79532c0.399251,0.22449 0.897156,0.292139 0.897156,0.897559 0,0.760247 -0.597366,1.67754 -0.897156,2.2443 0.399251,0.22449 0.897156,0.292139 0.897156,0.89776 0,1.5817 -1.79431,1.8076 -1.79431,2.69288 0,1.26762 1.02943,1.7317 1.79431,2.2443l0 1.79512c2.08625,0.173754 2.19558,1.00608 2.24309,3.14206 0.66582,0.48804 2.69147,3.04361 2.69147,4.03942l0 0.448779c0,1.71599 0.137916,0.163284 -0.448377,1.34654 0.639445,0.920712 1.34573,2.08786 1.34573,3.59064l0 1.34654c2.58395,-0.690383 0.550052,-1.48345 2.73556,-2.64899 1.44681,-0.771723 2.17383,-0.961584 2.64758,-2.73697l3.5846 0.00100668 0.901585 3.58963c-0.234557,1.00668 -0.448578,1.03185 -0.448578,2.2441l0 0.89776c-0.969839,0.513408 -2.24309,0.781992 -2.24309,2.2441l0 0.448981 0.112547 0.981516 -1.90706 2.16014c-1.05057,-0.245027 -1.3252,-0.448779 -2.69147,-0.448779 -1.21164,0 -1.23681,-0.214424 -2.24309,-0.448779 -1.12084,2.33712 0.225094,1.3862 -2.24712,2.70898l-2.23886 -0.464886c0.28771,2.63087 1.79431,0.934202 1.79431,3.14186 0,1.55915 -0.897156,0.684947 -0.897156,2.2441 0,1.58069 0.732865,1.62438 0.308649,3.4342 -0.398848,1.7017 -1.20581,1.74901 -1.20581,2.84952 0,1.36687 -0.203753,1.6417 -0.393613,2.68402l0.414552 3.14951 0.427639 9.87576c-3.0585,-0.0682531 -1.39969,-0.89776 -3.14025,-0.89776l-0.448578 0 -0.897156 0c-1.43613,0.760247 -1.62136,0.161673 -1.79451,2.2441 -1.78787,0.647499 -0.728839,1.34654 -1.79451,1.34654 -1.68942,0 -0.84803,-0.295361 -2.47402,-0.268784l-2.01196 2.51308 -1.76975 -0.00966416 0.463276 1.36687 -1.01292 3.20025 1.51385 1.74901 -0.659378 2.27551 1.01635 2.18974 0 0.89776 0 0.448981c0,1.48929 0.897357,0.937021 0.897357,1.79532 0,1.02802 -0.152211,0.521865 -0.448779,1.79512 1.36144,0.493073 4.77289,6.33103 8.07501,8.07924l0 0.897559 0 1.79532c2.94556,0.245228 3.34541,5.23878 5.38314,6.7325l0 1.79532 1.79431 0c1.62157,2.2141 1.49392,-0.563139 2.24329,2.2443 3.68265,0.306636 1.97632,3.30695 5.38314,3.59064 0.482604,1.80841 0.765281,1.46191 2.22235,2.16558l1.59076 -0.145768 1.57022 1.12205 0.306837 1.65197 1.22896 2.61214 2.05283 2.01941 0 1.34674z"/>
   <path id="_153984224" fill="#E6E6E6" stroke="#C2C1C1" stroke-width="0.996415" stroke-linecap="round" stroke-linejoin="round" d="M190.111 322.148c0,1.73129 0.448578,1.00427 0.448578,3.14166 0,1.03427 0.312072,1.34654 1.34573,1.34654l3.14025 0c-0.476363,-2.04598 -3.013,-5.63743 -5.38314,-5.83474 0.307441,0.547434 0.448578,0.479987 0.448578,1.34654z"/>
   <path id="_147437552" fill="#E6E6E6" stroke="#C2C1C1" stroke-width="0.996415" stroke-linecap="round" stroke-linejoin="round" d="M199.083 337.857l0.897156 0 0 1.34654c0,1.21205 -0.214222,1.23742 -0.423008,2.14605l1.64895 0.530522 0.594144 -4.09136 -2.71724 -0.829306 0 0.897559z"/>
   <path id="_153742888" fill="#E6E6E6" stroke="#C2C1C1" stroke-width="0.996415" stroke-linecap="round" stroke-linejoin="round" d="M100.839 411.017l0.466698 2.59644 3.12213 0.545421 0 -1.79532 0 -0.89776c-0.182814,-0.0966416 -1.74257,-0.897559 -1.79451,-0.897559 -0.113353,0 -1.65056,0.393009 -1.79431,0.448779z"/>
   <path id="_153660176" fill="#E6E6E6" stroke="#C2C1C1" stroke-width="0.996415" stroke-linecap="round" stroke-linejoin="round" d="M99.9415 421.34c0,1.81163 0.082548,0.194894 -0.448779,0.89776 0.307642,0.547434 0.448779,0.479987 0.448779,1.34634l-0.00442941 1.325 2.47181 -0.651727 1.57002 -1.12205 0 -1.79532c0,-1.00628 0.354957,-0.98514 0.897156,-1.79532l-1.79431 0c-1.54667,0 -1.73713,-0.332004 -3.14025,-0.448779l0 2.2441z"/>
   <path id="_115919368" fill="#E6E6E6" stroke="#C2C1C1" stroke-width="0.996415" stroke-linecap="round" stroke-linejoin="round" d="M47.3789 475.598c-0.754207,-0.125433 -1.71861,-0.590722 -1.71861,0.499315 0,0.505355 1.67512,2.31235 2.24309,2.69308l0 -1.34654c0,-1.55935 0.897156,-0.684947 0.897156,-2.2443l-0.183015 -1.46795 -1.23862 1.86639z"/>
   <path id="_109607992" fill="#E6E6E6" stroke="#C2C1C1" stroke-width="0.996415" stroke-linecap="round" stroke-linejoin="round" d="M86.9319 533.548c0.983328,1.46935 1.17379,0.624345 1.34573,2.69308l1.79451 0c0,-2.7563 -0.181606,-5.99903 -1.79451,-7.18128l0 2.2441 -0.897156 0 -0.448578 2.2441z"/>
   <polygon id="_104778384" fill="#FFD0A2" stroke="#C2C1C1" stroke-width="0.996415" stroke-linecap="round" stroke-linejoin="round" points="147.493,569.904 145.699,569.006 146.069,570.822 "/>
  </g>
 </g>
</svg>
